<svg xmlns="http://www.w3.org/2000/svg" width="113" height="134" viewBox="0 0 113 134">
  <g fill="none" fill-rule="evenodd" transform="translate(.905 1)">
    <path fill="#000" stroke="#000" d="M64.1675235,0 C73.1402573,1.64826445e-15 81.919935,2.6054897 89.4401558,7.5 C96.8946146,12.3517093 102.452295,19.6210347 105.179593,28.0868415 L105.179593,28.0868415 L109.017471,40 C114.06372,55.6640622 111.132096,72.8058265 101.167098,85.9026309 L101.167098,85.9026309 L95.0060333,94 L89.6718365,104.044625 C88.2925687,106.641872 87.5713348,109.537755 87.5713348,112.478516 C87.5713348,115.256792 86.1130139,117.831167 83.7300446,119.25955 L83.7300446,119.25955 L82.7440192,119.850586 C82.2487983,120.147428 81.6822633,120.304217 81.1048911,120.304217 C79.3441037,120.304217 77.9167036,118.876817 77.9167036,117.116029 L77.9167036,117.116029 L77.9167036,112.230795 C77.9167036,110.446476 76.4702273,109 74.6859085,109 C72.9015896,109 71.4551134,110.446476 71.4551134,112.230795 L71.4551134,112.230795 L71.4551134,125.308111 C71.4551134,129.003939 68.4590525,132 64.7632241,132 C61.0673957,132 58.0713348,129.003939 58.0713348,125.308111 L58.0713348,125.308111 L58.0713348,111.039972 C58.0713348,110.907524 58.0547184,110.775599 58.0218747,110.647288 C57.8239712,109.874132 57.0883176,109.380959 56.3173207,109.465395 C55.7459188,109.614937 55.2756062,110.069628 55.1357172,110.685128 C55.1087088,110.803963 55.0950775,110.925446 55.0950775,111.047312 L55.0950775,125.308111 C55.0950775,129.003939 52.0990166,132 48.4031882,132 C44.7073598,132 41.7112989,129.003939 41.7112989,125.308111 L41.7112989,112.230795 C41.7112989,110.446476 40.2648227,109 38.4805038,109 C36.696185,109 35.2497087,110.446476 35.2497087,112.230795 L35.2497087,116.600404 C35.2497087,118.361192 33.8223086,119.788592 32.0615212,119.788592 C31.484149,119.788592 30.917614,119.631803 30.4223931,119.334961 L29.2152381,118.611377 C26.9694479,117.265221 25.5950775,114.839044 25.5950775,112.220703 C25.5950775,109.449232 24.9153625,106.720054 23.6154943,104.272322 L21.8777283,101 C19.4035772,96.3410195 16.5553523,91.8905444 13.361108,87.6924107 L7.12772826,79.5 C0.215083147,70.4148439 -1.81856251,58.5237292 1.68198276,47.6576855 L7.98681892,28.0868415 C10.714117,19.6210347 16.2717977,12.3517093 23.7262565,7.5 C31.2464773,2.6054897 40.026155,1.64826445e-15 48.9988888,0 Z"/>
    <path fill="#FFF" stroke="#000" d="M90.0950775,48.3242013 L90.0950775,48.3242013 L90.0950775,48.3242013 L88.0158809,62.5291844 C86.7233826,71.3594776 78.5172388,77.4700677 69.6869456,76.1775695 C66.9182708,75.772316 64.3022792,74.6550495 62.0950775,72.9351509 L62.0950775,72.9351509 L62.0950775,72.9351509 L62.0950775,63.9260983 C62.0950775,53.7934564 70.3092068,45.5793271 80.4418487,45.5793271 C83.8521636,45.5793271 87.1949824,46.5298502 90.0950775,48.3242013 Z"/>
    <path fill="#FFF" stroke="#000" d="M51.0950775,47.7369403 L51.0950775,47.7369403 L51.0950775,47.7369403 L49.0857573,61.4903828 C47.8425193,70.000128 39.9361643,75.890796 31.4264191,74.6475579 C28.7520774,74.2568479 26.2254757,73.1767983 24.0950775,71.5136203 L24.0950775,71.5136203 L24.0950775,71.5136203 L24.0950775,62.7667305 C24.0950775,53.0005505 32.0121307,45.0834973 41.7783107,45.0834973 C45.0703474,45.0834973 48.2970247,46.0024646 51.0950775,47.7369403 Z" transform="matrix(-1 0 0 1 75.19 0)"/>
    <path fill="#FFF" stroke="#000" d="M58.0950775,76 L62.1925565,87.7058155 C63.23318,90.6787037 62.8123294,93.9681297 61.0567705,96.5832731 L58.0950775,100.995117 L58.0950775,100.995117 L58.0950775,76 Z"/>
    <path fill="#FFF" stroke="#000" d="M49.0950775,75 L53.4418851,87.4181058 C54.4825086,90.390994 54.061658,93.68042 52.3060991,96.2955634 L49.0950775,101.078816 L49.0950775,101.078816 L49.0950775,75 Z" transform="matrix(-1 0 0 1 104.19 0)"/>
    <path stroke="#FFF" d="M57.0914764,50.3720703 L54.5065016,35.0410136 C52.9178389,25.618919 53.3939539,15.9642238 55.9019428,6.74415294 L57.0914764,2.37109375 L57.0914764,2.37109375"/>
  </g>
</svg>
