<svg xmlns="http://www.w3.org/2000/svg" width="33" height="41" viewBox="0 0 33 41">
  <g fill="none" fill-rule="evenodd">
    <g fill="#FEFEFE" transform="translate(0 1)">
      <path d="M10 5C11.6568542 5 13 6.34314575 13 8L13 20 13 20 7 20 7 8C7 6.34314575 8.34314575 5 10 5zM17 0C18.6568542-3.04359188e-16 20 1.34314575 20 3L20 20 20 20 14 20 14 3C14 1.34314575 15.3431458 3.04359188e-16 17 0zM5 20L6 20 6 20 6 35 5 35C2.23857625 35 3.38176876e-16 32.7614237 0 30L0 25C-3.38176876e-16 22.2385763 2.23857625 20 5 20zM23.5 5C24.8807119 5 26 6.11928813 26 7.5L26 21 26 21 21 21 21 7.5C21 6.11928813 22.1192881 5 23.5 5zM29.5 10C30.8807119 10 32 11.1192881 32 12.5L32 21 32 21 27 21 27 12.5C27 11.1192881 28.1192881 10 29.5 10z"/>
      <path d="M7,20 L32,20 L32,35 C32,37.7614237 29.7614237,40 27,40 L12,40 C9.23857625,40 7,37.7614237 7,35 L7,20 L7,20 Z"/>
    </g>
    <path fill="#0E0E0E" d="M10 5C11.6568542 5 13 6.34314575 13 8L13 20 13 20 7 20 7 8C7 6.34314575 8.34314575 5 10 5zM17 0C18.6568542-3.04359188e-16 20 1.34314575 20 3L20 20 20 20 14 20 14 3C14 1.34314575 15.3431458 3.04359188e-16 17 0zM5 20L6 20 6 20 6 35 5 35C2.23857625 35-1.03199642e-14 32.7614237-1.0658141e-14 30L-1.0658141e-14 25C-1.09963179e-14 22.2385763 2.23857625 20 5 20zM23.5 5C24.8807119 5 26 6.11928813 26 7.5L26 20 26 20 21 20 21 7.5C21 6.11928813 22.1192881 5 23.5 5zM29.5 10C30.8807119 10 32 11.1192881 32 12.5L32 20 32 20 27 20 27 12.5C27 11.1192881 28.1192881 10 29.5 10zM7 20L32 20 32 35C32 37.7614237 29.7614237 40 27 40L12 40C9.23857625 40 7 37.7614237 7 35L7 20 7 20z" transform="translate(1)"/>
  </g>
</svg>
