<svg xmlns="http://www.w3.org/2000/svg" width="33" height="41" viewBox="0 0 33 41">
  <g fill="none" fill-rule="evenodd">
    <g fill="#0E0E0E" transform="translate(0 1)">
      <path d="M10 0C11.6568542-3.04359188e-16 13 1.34314575 13 3L13 20 13 20 7 20 7 3C7 1.34314575 8.34314575 3.04359188e-16 10 0zM17 11C18.6568542 11 20 12.3431458 20 14L20 21 20 21 14 21 14 14C14 12.3431458 15.3431458 11 17 11zM5 20L6 20 6 20 6 35 5 35C2.23857625 35 3.38176876e-16 32.7614237 0 30L0 25C-3.38176876e-16 22.2385763 2.23857625 20 5 20zM23.5 11C24.8807119 11 26 12.1192881 26 13.5L26 20 26 20 21 20 21 13.5C21 12.1192881 22.1192881 11 23.5 11zM29.5 15C30.8807119 15 32 16.1192881 32 17.5L32 20 32 20 27 20 27 17.5C27 16.1192881 28.1192881 15 29.5 15z"/>
      <path d="M7,20 L32,20 L32,35 C32,37.7614237 29.7614237,40 27,40 L12,40 C9.23857625,40 7,37.7614237 7,35 L7,20 L7,20 Z"/>
    </g>
    <path fill="#FEFEFE" d="M10 0C11.6568542-3.04359188e-16 13 1.34314575 13 3L13 20 13 20 7 20 7 3C7 1.34314575 8.34314575 3.04359188e-16 10 0zM17 11C18.6568542 11 20 12.3431458 20 14L20 20 20 20 14 20 14 14C14 12.3431458 15.3431458 11 17 11zM5 20L6 20 6 20 6 35 5 35C2.23857625 35 3.38176876e-16 32.7614237 0 30L0 25C-3.38176876e-16 22.2385763 2.23857625 20 5 20zM23.5 11C24.8807119 11 26 12.1192881 26 13.5L26 20 26 20 21 20 21 13.5C21 12.1192881 22.1192881 11 23.5 11zM29.5 15C30.8807119 15 32 16.1192881 32 17.5L32 20 32 20 27 20 27 17.5C27 16.1192881 28.1192881 15 29.5 15zM7 20L32 20 32 35C32 37.7614237 29.7614237 40 27 40L12 40C9.23857625 40 7 37.7614237 7 35L7 20 7 20z" transform="translate(1)"/>
  </g>
</svg>
